<svg width="61" height="67" viewBox="0 0 61 67" fill="none" xmlns="http://www.w3.org/2000/svg">
<path d="M27.0367 14.5495H11.907C8.64704 14.5495 5.97217 11.8746 5.97217 8.61458V8.11306C5.97217 4.85307 8.64704 2.17822 11.907 2.17822H27.0367C30.2967 2.17822 32.9716 4.85307 32.9716 8.11306V8.61458C32.888 11.8746 30.2967 14.5495 27.0367 14.5495Z" stroke="#3E6AB3" stroke-width="2.8391" stroke-miterlimit="10"/>
<path d="M32.9716 9.86853C32.9716 9.86853 28.3742 16.4721 31.7178 20.568C33.1388 22.3234 34.4762 23.9952 35.3957 25.3326C36.7332 27.1716 37.4855 29.3449 37.4855 31.6018V52.5828C37.4855 52.5828 38.0706 58.4341 32.9716 58.4341H5.97221C0.873245 58.4341 1.45838 52.5828 1.45838 52.5828V31.6018C1.45838 29.3449 2.21068 27.1716 3.54812 25.3326C4.55119 23.9952 5.80503 22.3234 7.22605 20.568C10.5696 16.3886 5.97221 9.86853 5.97221 9.86853" stroke="#3E6AB3" stroke-width="2.8391" stroke-miterlimit="10"/>
<path d="M1.4585 31.0167H37.4856" stroke="#3E6AB3" stroke-width="2.8391" stroke-miterlimit="10"/>
<path d="M30.6314 18.4783H16.5884" stroke="#3E6AB3" stroke-width="2.8391" stroke-miterlimit="10"/>
<path d="M11.8235 18.4783H14.4984" stroke="#3E6AB3" stroke-width="2.8391" stroke-miterlimit="10"/>
<path d="M19.4302 35.5304V46.8986" stroke="#3E6AB3" stroke-width="2.8391" stroke-miterlimit="10"/>
<path d="M13.1611 41.549H25.2816" stroke="#3E6AB3" stroke-width="2.8391" stroke-miterlimit="10"/>
<path d="M1.4585 51.1617H26.2846" stroke="#3E6AB3" stroke-width="2.8391" stroke-miterlimit="10"/>
<path d="M25.6995 58.6012V50.4094" stroke="#4C6796" stroke-width="2.8391" stroke-miterlimit="10"/>
<path d="M27.4548 60.9417L27.0369 60.3565C24.2784 56.4278 25.1979 51.0781 29.043 48.3196L44.5907 37.2859C48.5194 34.5274 53.8691 35.4469 56.6276 39.3756L57.0455 39.9607C59.804 43.8894 58.8845 49.2391 55.0394 51.9976L39.4917 63.0314C35.563 65.7899 30.2133 64.8704 27.4548 60.9417Z" fill="#FFF8F8" stroke="#3E6AB3" stroke-width="2.8391" stroke-miterlimit="10"/>
</svg>
