<?xml version="1.0" encoding="utf-8"?>
<!-- Generator: Adobe Illustrator 26.0.1, SVG Export Plug-In . SVG Version: 6.00 Build 0)  -->
<svg version="1.1" id="Layer_1" xmlns="http://www.w3.org/2000/svg" xmlns:xlink="http://www.w3.org/1999/xlink" x="0px" y="0px"
	 viewBox="0 0 62.2 63.9" style="enable-background:new 0 0 62.2 63.9;" xml:space="preserve">
<style type="text/css">
	.st0{display:none;}
	.st1{fill:#FFFFFF;}
	.st2{fill:#3E6AB3;}
</style>
<rect x="-508.9" y="-508" class="st0" width="1080" height="1080"/>
<g id="_x30_ded6cf6-ee70-44fc-b858-4e780bff4aea" transform="matrix(1 0 0 1 540 540)" class="st0">
	<rect x="-1048.9" y="-1048" vector-effect="non-scaling-stroke" class="st1" width="1080" height="1080"/>
</g>
<g transform="matrix(1 0 0 1 540 540)">
	<g vector-effect="non-scaling-stroke">
		<g transform="matrix(1 0 0 1 -23.64 -18.83)">
			<path vector-effect="non-scaling-stroke" class="st2" d="M-510.3-494.9h-6.1v-26.2h14.9v6.6h-1.8v-4.8h-11.4v22.7h4.3V-494.9z"/>
		</g>
		<g transform="matrix(1 0 0 1 -14.62 -14.46)">
			<path vector-effect="non-scaling-stroke" class="st2" d="M-501.6-499.2h-14.8v-17.6h14.9L-501.6-499.2L-501.6-499.2z M-514.6-501
				h11.4v-14.1h-11.4V-501z"/>
		</g>
		<g transform="matrix(1 0 0 1 -26.01 -26.21)">
			<path vector-effect="non-scaling-stroke" class="st2" d="M-508-509h-1.9v1.9h1.9V-509z"/>
		</g>
		<g transform="matrix(1 0 0 1 -17.33 -17.68)">
			<path vector-effect="non-scaling-stroke" class="st2" d="M-508-509h-1.9v1.9h1.9V-509z"/>
		</g>
		<g transform="matrix(1 0 0 1 -13.26 -17.68)">
			<path vector-effect="non-scaling-stroke" class="st2" d="M-508-509h-1.9v1.9h1.9V-509z"/>
		</g>
		<g transform="matrix(1 0 0 1 -17.33 -13.57)">
			<path vector-effect="non-scaling-stroke" class="st2" d="M-508-509h-1.9v1.9h1.9V-509z"/>
		</g>
		<g transform="matrix(1 0 0 1 -13.26 -13.57)">
			<path vector-effect="non-scaling-stroke" class="st2" d="M-508-509h-1.9v1.9h1.9V-509z"/>
		</g>
		<g transform="matrix(1 0 0 1 -21.44 -26.21)">
			<path vector-effect="non-scaling-stroke" class="st2" d="M-508-509h-1.9v1.9h1.9V-509z"/>
		</g>
		<g transform="matrix(1 0 0 1 -26.01 -21.91)">
			<path vector-effect="non-scaling-stroke" class="st2" d="M-508-509h-1.9v1.9h1.9V-509z"/>
		</g>
		<g transform="matrix(1 0 0 1 -26.01 -17.68)">
			<path vector-effect="non-scaling-stroke" class="st2" d="M-508-509h-1.9v1.9h1.9V-509z"/>
		</g>
		<g transform="matrix(1 0 0 1 -26.01 -13.97)">
			<path vector-effect="non-scaling-stroke" class="st2" d="M-508-509h-1.9v1.9h1.9V-509z"/>
		</g>
		<g transform="matrix(1 0 0 1 0.48 -22.53)">
			<path vector-effect="non-scaling-stroke" class="st2" d="M-503.5-506.6c-3.4-1.4-7.4-1.4-10.8,0l-0.8-1.6c3.9-1.7,8.4-1.7,12.3,0
				L-503.5-506.6z"/>
		</g>
		<g transform="matrix(1 0 0 1 0.48 -17.7)">
			<path vector-effect="non-scaling-stroke" class="st2" d="M-503.5-506.6c-3.4-1.4-7.4-1.4-10.8,0l-0.8-1.6c3.9-1.7,8.4-1.7,12.3,0
				L-503.5-506.6z"/>
		</g>
		<g transform="matrix(1 0 0 1 18.48 -17.64)">
			<path vector-effect="non-scaling-stroke" class="st2" d="M-499.6-499.6h-18.6v-12l3.8-4.8h12.1l2.8,4.9V-499.6z M-516.5-501.4
				h15.1v-9.8l-2.1-3.6h-10.2l-2.8,3.7V-501.4z"/>
		</g>
		<g transform="matrix(1 0 0 1 18.42 -20.98)">
			<path vector-effect="non-scaling-stroke" class="st2" d="M-500.5-508.9h-16.9v1.8h16.9V-508.9z"/>
		</g>
		<g transform="matrix(1 0 0 1 18.4 -20.93)">
			<path vector-effect="non-scaling-stroke" class="st2" d="M-504.5-502.9h-8.8v-5.3l2.1-4.9h4.1l2.6,4.9V-502.9z M-511.6-504.7h5.3
				v-3.2l-1.9-3.6h-1.8l-1.5,3.6V-504.7z"/>
		</g>
		<g transform="matrix(1 0 0 1 17.92 -4.17)">
			<path vector-effect="non-scaling-stroke" class="st2" d="M-507.5-505.1h-1.8c0.2-1.7-0.3-3.3-1.2-4.7l1.3-1.2
				C-507.9-509.3-507.3-507.2-507.5-505.1z"/>
		</g>
		<g transform="matrix(1 0 0 1 23.32 -4.17)">
			<path vector-effect="non-scaling-stroke" class="st2" d="M-507.5-505.1h-1.8c0.2-1.7-0.3-3.3-1.2-4.7l1.3-1.2
				C-509-510.9-507.5-509.1-507.5-505.1z"/>
		</g>
		<g transform="matrix(1 0 0 1 -4.55 22.54)">
			<path vector-effect="non-scaling-stroke" class="st2" d="M-506.4-506.9c-1.6-0.6-3.3-0.6-4.8-0.1l-0.8-1.6c2-0.8,4.1-0.8,6.1-0.1
				L-506.4-506.9z"/>
		</g>
		<g transform="matrix(1 0 0 1 -3.19 17.34)">
			<path vector-effect="non-scaling-stroke" class="st2" d="M-506.4-506.9c-1.6-0.6-3.3-0.6-4.8-0.1l-0.8-1.6c2-0.8,4.1-0.8,6.1-0.1
				L-506.4-506.9z"/>
		</g>
		<g transform="matrix(1 0 0 1 15.83 15.95)">
			<path vector-effect="non-scaling-stroke" class="st2" d="M-513.1-492.1c-0.3,0-0.7-0.1-0.9-0.2c-1.3-0.4-2.1-1.6-2.1-2.9v-2.3
				c0-0.5-0.3-1-0.6-1.3c-0.3-0.3-0.8-0.4-1.3-0.4l-2.1,0.3c-1.3,0.2-2.5-0.5-3.1-1.7c-0.6-1.2-0.4-2.7,0.5-3.7l1.5-1.6
				c0.3-0.3,0.5-0.8,0.5-1.3c0-0.5-0.3-1-0.7-1.3l-1.7-1.4c-1-0.8-1.4-2.3-1-3.5c0.4-1.3,1.6-2.1,2.8-2.1h2.2c0.5,0,0.9-0.3,1.3-0.6
				c0.3-0.4,0.5-0.9,0.4-1.4l-0.3-2.2c-0.2-1.3,0.6-2.7,1.8-3.3c1.2-0.6,2.5-0.3,3.4,0.6l1.5,1.6c0.6,0.7,1.7,0.7,2.3,0.1
				c0.1-0.1,0.2-0.2,0.2-0.3l1.3-1.8c0.8-1,2.1-1.4,3.3-1.1c1.3,0.4,2.1,1.6,2.1,2.9v2.3c0,0.5,0.3,1,0.6,1.3
				c0.3,0.3,0.8,0.4,1.3,0.4l2.1-0.3c1.3-0.2,2.5,0.5,3.1,1.7c0.6,1.2,0.4,2.7-0.5,3.7l-1.5,1.6c-0.3,0.3-0.5,0.8-0.5,1.3
				c0,0.5,0.3,0.9,0.7,1.3l1.7,1.4c1,0.8,1.4,2.3,1,3.5c-0.4,1.3-1.6,2.1-2.8,2.1h-2.2c-0.5,0-0.9,0.3-1.3,0.6
				c-0.3,0.4-0.5,0.9-0.4,1.4l0.3,2.2c0.2,1.3-0.6,2.7-1.8,3.3c-1.2,0.6-2.5,0.3-3.4-0.6l-1.5-1.6c-0.3-0.3-0.8-0.5-1.3-0.5
				s-0.9,0.3-1.3,0.7l-1.3,1.8C-511.3-492.6-512.1-492.1-513.1-492.1z M-517.9-500.6c0.8,0,1.4,0.3,2,0.8c0.7,0.6,1.1,1.4,1.1,2.3
				v2.3c0,0.8,0.4,1.4,1.2,1.7c0.7,0.3,1.4,0,1.8-0.6l1.3-1.8c1-1.3,2.8-1.6,4.2-0.6c0.1,0.1,0.3,0.2,0.3,0.3l1.5,1.6
				c0.5,0.5,1.3,0.7,1.8,0.3c0.7-0.3,1.1-1.1,1-1.8l-0.3-2.2c-0.1-0.9,0.2-1.8,0.8-2.5c0.6-0.7,1.3-1,2.3-1h2.2
				c0.8,0,1.3-0.5,1.6-1.2c0.3-0.8,0.1-1.5-0.5-2l-1.7-1.4c-0.7-0.6-1.1-1.3-1.2-2.3c-0.1-0.9,0.3-1.8,0.8-2.4l1.5-1.6
				c0.5-0.6,0.7-1.4,0.3-2.1c-0.3-0.7-1-1-1.7-0.9l-2.1,0.3c-0.8,0.1-1.7-0.2-2.3-0.8s-1.1-1.4-1.1-2.3v-2.3c0-0.8-0.4-1.4-1.2-1.7
				c-0.7-0.3-1.4,0-1.8,0.6l-1.3,1.8c-0.5,0.7-1.3,1.2-2.3,1.2c-0.8,0.1-1.8-0.3-2.3-0.9l-1.5-1.6c-0.5-0.5-1.3-0.7-1.8-0.3
				c-0.7,0.3-1.1,1.1-1,1.8l0.3,2.2c0.1,0.9-0.2,1.8-0.8,2.5c-0.6,0.7-1.3,1-2.3,1h-2.2c-0.8,0-1.3,0.5-1.6,1.2
				c-0.3,0.8-0.1,1.5,0.5,2l1.7,1.4c0.7,0.6,1.1,1.3,1.2,2.3c0.1,0.9-0.3,1.8-0.8,2.4l-1.5,1.6c-0.5,0.6-0.7,1.4-0.3,2.1
				c0.3,0.7,1,1,1.7,0.9l2.1-0.3C-518.2-500.6-518-500.6-517.9-500.6z"/>
		</g>
		<g transform="matrix(1 0 0 1 15.83 15.94)">
			<path vector-effect="non-scaling-stroke" class="st2" d="M-508.9-500.9h-0.2c-4-0.3-7-3.6-6.8-7.6c0.3-3.7,3.3-6.7,6.9-6.8h0.2
				c3.9,0.2,6.9,3.4,6.8,7.4C-502-504-505.1-500.9-508.9-500.9z M-508.9-513.6c-3-0.2-5.6,2.3-5.8,5.3c-0.2,3,2.3,5.6,5.3,5.8
				c3,0.2,5.6-2.3,5.8-5.3c0-0.1,0-0.1,0-0.2C-503.6-511-505.8-513.5-508.9-513.6L-508.9-513.6z"/>
		</g>
		<g transform="matrix(1 0 0 1 -19.47 20.69)">
			<path vector-effect="non-scaling-stroke" class="st2" d="M-498.1-498.6h-7.9l-0.3-0.7c-0.1-0.2-1.8-4.3,0.8-6.8
				c0.8-0.9,1.1-2.1,1-3.3l2.2-0.2c0,0,0.3,3.3-1.7,4.9c-1,1-0.7,2.8-0.4,3.8h4.3v-11.3c0-1.8-1.5-3.3-3.3-3.3h-10.9
				c-1.8,0-3.3,1.5-3.3,3.3v11.3h4.4c0.4-1,0.3-2.2-0.3-3.1c-1.2-1.5-1.8-3.4-1.6-5.3h2.1c-0.1,1.5,0.3,3,1.3,4.2
				c1.2,1.8,1.3,4.2,0,5.9l-0.3,0.4h-7.8V-512c0-3,2.4-5.4,5.4-5.4h10.8c3,0,5.4,2.4,5.4,5.4L-498.1-498.6z"/>
		</g>
		<g transform="matrix(1 0 0 1 -25.8 30.49)">
			<path vector-effect="non-scaling-stroke" class="st2" d="M-508-509.5h-1.8v2.9h1.8V-509.5z"/>
		</g>
		<g transform="matrix(1 0 0 1 -12.99 30.49)">
			<path vector-effect="non-scaling-stroke" class="st2" d="M-508-509.5h-1.8v2.9h1.8V-509.5z"/>
		</g>
		<g transform="matrix(1 0 0 1 -19.43 6.91)">
			<path vector-effect="non-scaling-stroke" class="st2" d="M-508.9-502c-3.3,0-6-2.7-6-6c0-3.3,2.7-6,6-6s6,2.7,6,6
				C-502.9-504.7-505.6-502-508.9-502z M-508.9-512.3c-2.3,0-4.3,1.9-4.3,4.3c0,2.3,1.9,4.3,4.3,4.3s4.3-1.9,4.3-4.3
				C-504.7-510.4-506.6-512.3-508.9-512.3z"/>
		</g>
		<g transform="matrix(1 0 0 1 -17.06 -2.13)">
			<path vector-effect="non-scaling-stroke" class="st2" d="M-508-510.2h-1.8v4.3h1.8V-510.2z"/>
		</g>
		<g transform="matrix(1 0 0 1 -22.34 -2.13)">
			<path vector-effect="non-scaling-stroke" class="st2" d="M-508-510.2h-1.8v4.3h1.8V-510.2z"/>
		</g>
	</g>
</g>
</svg>
