<svg width="66" height="66" viewBox="0 0 66 66" fill="none" xmlns="http://www.w3.org/2000/svg">
<path d="M39.7597 65.7254H3.3147C1.55932 65.7254 0.138306 64.3044 0.138306 62.5491V11.5594C0.138306 9.80407 1.55932 8.38306 3.3147 8.38306H11.0885V10.1384H3.3147C2.4788 10.1384 1.89368 10.8071 1.89368 11.5594V62.5491C1.89368 63.385 2.56239 63.9701 3.3147 63.9701H39.7597C40.5956 63.9701 41.1808 63.3014 41.1808 62.5491V11.5594C41.1808 10.7236 40.512 10.1384 39.7597 10.1384H32.1531V8.38306H39.7597C41.5151 8.38306 42.9361 9.80407 42.9361 11.5594V62.5491C42.9361 64.3044 41.5151 65.7254 39.7597 65.7254Z" fill="#3E6AB3"/>
<path d="M22.5846 16.7211H5.28162V18.4764H22.5846V16.7211Z" fill="#3E6AB3"/>
<path d="M37.5472 20.9884H5.28162V23.4125H37.5472V20.9884Z" fill="#3E6AB3"/>
<path d="M37.5472 25.4904H5.28162V27.9145H37.5472V25.4904Z" fill="#3E6AB3"/>
<path d="M31.0281 13.3199H12.1368C11.1338 13.3199 10.3815 12.5675 10.3815 11.5645V6.46551C10.3815 5.46244 11.1338 4.7101 12.1368 4.7101L16.5671 4.79372C17.1522 2.11886 19.7435 0.447066 22.4184 1.03219C24.2573 1.45014 25.7619 2.87116 26.1799 4.79372L30.9445 4.7101C31.9476 4.7101 32.6999 5.46244 32.6999 6.46551V11.5645C32.7835 12.4839 32.0312 13.2363 31.0281 13.3199ZM12.1368 6.38189V11.4809H31.0281V6.38189L24.5917 6.46551V5.546C24.5081 3.79062 23.0871 2.4532 21.3317 2.53679C19.6599 2.62038 18.4061 3.87421 18.3225 5.546V6.46551L12.1368 6.38189Z" fill="#3E6AB3"/>
<path d="M19.6223 46.2215C15.1085 46.2215 11.4305 42.5436 11.4305 38.0298C11.4305 33.5159 15.1085 29.838 19.6223 29.838C24.1362 29.838 27.8141 33.5159 27.8141 38.0298C27.8141 42.5436 24.1362 46.2215 19.6223 46.2215ZM19.6223 32.4293C16.5295 32.4293 14.0218 34.937 14.0218 38.0298C14.0218 41.1226 16.5295 43.6303 19.6223 43.6303C22.7151 43.6303 25.2228 41.1226 25.2228 38.0298C25.1392 34.937 22.6315 32.4293 19.6223 32.4293Z" fill="#3E6AB3"/>
<path d="M19.6172 41.1183C17.9454 41.1183 16.5244 39.6972 16.5244 38.0254C16.5244 36.3536 17.9454 34.9326 19.6172 34.9326C21.289 34.9326 22.71 36.3536 22.71 38.0254C22.71 39.6972 21.289 41.1183 19.6172 41.1183ZM19.6172 36.688C18.8649 36.688 18.2798 37.2731 18.2798 38.0254C18.2798 38.7777 18.8649 39.3629 19.6172 39.3629C20.3695 39.3629 20.9547 38.7777 20.9547 38.0254C20.9547 37.2731 20.3695 36.688 19.6172 36.688Z" fill="#3E6AB3"/>
<path d="M36.3233 56.4829C34.2336 56.4829 32.5618 54.8111 32.5618 52.7214C32.5618 50.6316 34.2336 48.9598 36.3233 48.9598C38.413 48.9598 40.0848 50.6316 40.0848 52.7214C40.1684 54.8111 38.413 56.4829 36.3233 56.4829ZM36.3233 51.0496C35.4038 51.0496 34.6515 51.8019 34.6515 52.7214C34.6515 53.6409 35.4038 54.3932 36.3233 54.3932C37.2428 54.3932 37.9951 53.6409 37.9951 52.7214C37.9951 51.8019 37.2428 51.0496 36.3233 51.0496Z" fill="#3E6AB3"/>
<path d="M21.3266 62.3952C19.822 62.3952 18.2338 62.1445 16.8128 61.5593C13.8872 60.3891 11.7974 57.7142 11.3795 54.5378C10.3764 46.4296 13.8872 42.4173 14.0544 42.2501L15.6426 43.6712C15.559 43.8383 12.6333 47.1819 13.5528 54.2035C13.8036 56.544 15.3918 58.6337 17.5651 59.4696C20.4072 60.5563 26.2584 61.225 33.6979 53.8691L35.2025 55.3737C29.7692 60.8906 24.921 62.3952 21.3266 62.3952Z" fill="#3E6AB3"/>
<path d="M39.1865 55.3017H39.1029H38.0162V52.8777L37.5147 51.6238L36.2608 51.1223L34.3383 51.4566L34.4219 50.1192C34.4219 50.1192 34.589 47.3607 35.1742 41.0915C35.7593 34.4879 40.1895 29.0547 43.1152 25.4603C43.9511 24.3737 45.2049 23.7049 46.5423 23.6213C48.3813 23.7885 50.1367 24.6244 51.3905 25.9618L49.8023 27.4664C48.9664 26.547 47.8798 25.9618 46.6259 25.7946H46.5423C45.79 25.8782 45.1213 26.2126 44.7034 26.7977C41.9449 30.2249 37.7654 35.3239 37.2639 41.2587C36.9295 45.0202 36.6788 47.528 36.5952 48.8654L39.1029 49.952L40.1059 52.4597V53.1284C42.6136 53.0448 48.8828 52.5433 53.4803 50.2028C56.2387 48.7818 58.9136 47.11 61.3377 45.1039C62.2572 44.4351 62.7587 43.3485 62.9259 42.2618C63.0095 41.1751 62.6751 40.1721 62.0064 39.3362L63.5946 37.8316L63.6782 37.9151C64.7648 39.169 65.2664 40.7572 65.0992 42.429C64.932 44.1008 64.0961 45.689 62.7587 46.7756C60.1674 48.7818 57.409 50.6207 54.4833 52.1253C48.4649 55.2182 40.2731 55.3017 39.1865 55.3017Z" fill="#3E6AB3"/>
<path d="M52.6651 32.5203C50.4082 32.5203 48.4856 30.6814 48.4856 28.3409C48.4856 26.0003 50.3246 24.1614 52.6651 24.1614C55.0056 24.1614 56.8445 26.0003 56.8445 28.3409C56.761 30.6814 54.922 32.5203 52.6651 32.5203ZM52.6651 26.4183C51.5784 26.4183 50.6589 27.3378 50.6589 28.4245C50.6589 29.5111 51.5784 30.4306 52.6651 30.4306C53.7517 30.4306 54.6712 29.5111 54.6712 28.4245C54.5876 27.3378 53.7517 26.4183 52.6651 26.4183Z" fill="#3E6AB3"/>
<path d="M60.9473 40.9411C58.6904 40.9411 56.7678 39.1021 56.7678 36.7616C56.7678 34.5047 58.6068 32.5822 60.9473 32.5822C63.2878 32.5822 65.1268 34.4211 65.1268 36.7616C65.1268 39.1021 63.2042 40.9411 60.9473 40.9411ZM60.9473 34.7555C59.8606 34.7555 58.9412 35.675 58.9412 36.7616C58.9412 37.8483 59.8606 38.7678 60.9473 38.7678C62.034 38.7678 62.9534 37.8483 62.9534 36.7616C62.9534 35.675 62.034 34.7555 60.9473 34.7555Z" fill="#3E6AB3"/>
</svg>
