<?xml version="1.0" encoding="utf-8"?>
<!-- Generator: Adobe Illustrator 26.0.1, SVG Export Plug-In . SVG Version: 6.00 Build 0)  -->
<svg version="1.1" id="Layer_1" xmlns="http://www.w3.org/2000/svg" xmlns:xlink="http://www.w3.org/1999/xlink" x="0px" y="0px"
	 viewBox="0 0 66 66" style="enable-background:new 0 0 66 66;" xml:space="preserve">
<style type="text/css">
	.st0{fill:#FFFFFF;}
</style>
<path class="st0" d="M39.8,65.7H3.3c-1.8,0-3.2-1.4-3.2-3.2v-51c0-1.8,1.4-3.2,3.2-3.2h7.8v1.8H3.3c-0.8,0-1.4,0.7-1.4,1.4v51
	c0,0.8,0.7,1.4,1.4,1.4h36.4c0.8,0,1.4-0.7,1.4-1.4v-51c0-0.8-0.7-1.4-1.4-1.4h-7.6V8.4h7.6c1.8,0,3.2,1.4,3.2,3.2v51
	C42.9,64.3,41.5,65.7,39.8,65.7z"/>
<path class="st0" d="M22.6,16.7H5.3v1.8h17.3V16.7z"/>
<path class="st0" d="M37.5,21H5.3v2.4h32.3V21z"/>
<path class="st0" d="M37.5,25.5H5.3v2.4h32.3V25.5z"/>
<path class="st0" d="M31,13.3H12.1c-1,0-1.8-0.8-1.8-1.8V6.5c0-1,0.8-1.8,1.8-1.8l4.4,0.1c0.6-2.7,3.2-4.3,5.9-3.8
	c1.8,0.4,3.3,1.8,3.8,3.8l4.8-0.1c1,0,1.8,0.8,1.8,1.8v5.1C32.8,12.5,32,13.2,31,13.3z M12.1,6.4v5.1H31V6.4l-6.4,0.1V5.5
	c-0.1-1.8-1.5-3.1-3.3-3c-1.7,0.1-2.9,1.3-3,3v0.9L12.1,6.4z"/>
<path class="st0" d="M19.6,46.2c-4.5,0-8.2-3.7-8.2-8.2c0-4.5,3.7-8.2,8.2-8.2c4.5,0,8.2,3.7,8.2,8.2C27.8,42.5,24.1,46.2,19.6,46.2
	z M19.6,32.4c-3.1,0-5.6,2.5-5.6,5.6s2.5,5.6,5.6,5.6s5.6-2.5,5.6-5.6C25.1,34.9,22.6,32.4,19.6,32.4z"/>
<path class="st0" d="M19.6,41.1c-1.7,0-3.1-1.4-3.1-3.1c0-1.7,1.4-3.1,3.1-3.1c1.7,0,3.1,1.4,3.1,3.1C22.7,39.7,21.3,41.1,19.6,41.1
	z M19.6,36.7c-0.8,0-1.3,0.6-1.3,1.3c0,0.8,0.6,1.3,1.3,1.3c0.8,0,1.3-0.6,1.3-1.3C21,37.3,20.4,36.7,19.6,36.7z"/>
<path class="st0" d="M36.3,56.5c-2.1,0-3.8-1.7-3.8-3.8c0-2.1,1.7-3.8,3.8-3.8s3.8,1.7,3.8,3.8C40.2,54.8,38.4,56.5,36.3,56.5z
	 M36.3,51c-0.9,0-1.7,0.8-1.7,1.7c0,0.9,0.8,1.7,1.7,1.7c0.9,0,1.7-0.8,1.7-1.7C38,51.8,37.2,51,36.3,51z"/>
<path class="st0" d="M21.3,62.4c-1.5,0-3.1-0.3-4.5-0.8c-2.9-1.2-5-3.8-5.4-7c-1-8.1,2.5-12.1,2.7-12.3l1.6,1.4
	c-0.1,0.2-3,3.5-2.1,10.5c0.3,2.3,1.8,4.4,4,5.3c2.8,1.1,8.7,1.8,16.1-5.6l1.5,1.5C29.8,60.9,24.9,62.4,21.3,62.4z"/>
<path class="st0" d="M39.2,55.3L39.2,55.3H38v-2.4l-0.5-1.3l-1.3-0.5l-1.9,0.3l0.1-1.3c0,0,0.2-2.8,0.8-9c0.6-6.6,5-12,7.9-15.6
	c0.8-1.1,2.1-1.8,3.4-1.8c1.8,0.2,3.6,1,4.8,2.3l-1.6,1.5c-0.8-0.9-1.9-1.5-3.2-1.7h-0.1c-0.8,0.1-1.4,0.4-1.8,1
	c-2.8,3.4-6.9,8.5-7.4,14.5c-0.3,3.8-0.6,6.3-0.7,7.6l2.5,1.1l1,2.5v0.7c2.5-0.1,8.8-0.6,13.4-2.9c2.8-1.4,5.4-3.1,7.9-5.1
	c0.9-0.7,1.4-1.8,1.6-2.8c0.1-1.1-0.3-2.1-0.9-2.9l1.6-1.5l0.1,0.1c1.1,1.3,1.6,2.8,1.4,4.5c-0.2,1.7-1,3.3-2.3,4.3
	c-2.6,2-5.3,3.8-8.3,5.3C48.5,55.2,40.3,55.3,39.2,55.3z"/>
<path class="st0" d="M52.7,32.5c-2.3,0-4.2-1.8-4.2-4.2c0-2.3,1.8-4.2,4.2-4.2s4.2,1.8,4.2,4.2C56.8,30.7,54.9,32.5,52.7,32.5z
	 M52.7,26.4c-1.1,0-2,0.9-2,2c0,1.1,0.9,2,2,2c1.1,0,2-0.9,2-2C54.6,27.3,53.8,26.4,52.7,26.4z"/>
<path class="st0" d="M60.9,40.9c-2.3,0-4.2-1.8-4.2-4.2c0-2.3,1.8-4.2,4.2-4.2s4.2,1.8,4.2,4.2S63.2,40.9,60.9,40.9z M60.9,34.8
	c-1.1,0-2,0.9-2,2c0,1.1,0.9,2,2,2s2-0.9,2-2C63,35.7,62,34.8,60.9,34.8z"/>
</svg>
