<svg width="60" height="61" viewBox="0 0 60 61" fill="none" xmlns="http://www.w3.org/2000/svg">
<path d="M42.5754 8.11962C42.5754 8.11962 49.5133 2.85345 56.3677 5.11037C56.9528 10.4601 54.9466 15.8098 51.1015 19.4878C46.0026 24.5031 27.78 41.2211 27.78 41.2211" stroke="#3E6AB3" stroke-width="2.8391" stroke-miterlimit="10"/>
<path d="M40.9037 9.12268L17.0807 36.6236C17.0807 36.6236 9.64122 46.9051 10.6443 49.9144C13.3192 50.7503 16.9971 49.7472 25.774 43.3108" stroke="#3E6AB3" stroke-width="2.8391" stroke-miterlimit="10"/>
<path d="M36.1389 33.5309L50.3491 53.258C50.3491 53.258 53.5255 54.2611 54.9466 52.4221C54.9466 52.4221 54.9466 52.4221 55.0302 52.3385C56.7019 50.1652 57.1199 47.3231 55.9496 44.8154L46.7548 23.5837" stroke="#3E6AB3" stroke-width="2.8391" stroke-miterlimit="10"/>
<path d="M27.4457 24.6703L6.79907 9.20623C6.79907 9.20623 7.63496 5.36111 9.64111 4.6088C9.89188 4.52522 10.059 4.44164 10.3098 4.35805C12.316 3.68933 14.4893 3.77291 16.4954 4.6088L37.4764 13.2185" stroke="#3E6AB3" stroke-width="2.8391" stroke-miterlimit="10"/>
<path d="M49.4299 29.6021C49.4299 29.6021 53.1915 28.2647 54.3617 29.6021C55.532 30.9395 52.8571 34.1159 51.5197 34.3667" stroke="#3E6AB3" stroke-width="2.8391" stroke-miterlimit="10"/>
<path d="M52.6895 37.4595C52.6895 37.4595 56.451 36.1221 57.6212 37.4595C58.7915 38.797 56.1166 41.9734 54.7792 42.2241" stroke="#3E6AB3" stroke-width="2.8391" stroke-miterlimit="10"/>
<path d="M31.6252 10.3765C31.6252 10.3765 32.9626 6.61497 31.6252 5.44472C30.2878 4.27447 27.1114 6.94935 26.8606 8.28678" stroke="#3E6AB3" stroke-width="2.8391" stroke-miterlimit="10"/>
<path d="M23.8513 7.11651C23.8513 7.11651 25.1887 3.35496 23.8513 2.18471C22.5139 1.01446 19.3374 3.68934 19.0867 5.02677" stroke="#3E6AB3" stroke-width="2.8391" stroke-miterlimit="10"/>
<path d="M21.0094 46.4872L24.8545 54.0939C25.6904 55.5985 25.1053 57.4374 23.6007 58.2733C22.7648 58.8585 21.6781 58.7749 21.0094 57.939C17.6658 53.9267 14.573 49.6636 14.573 49.6636" stroke="#3E6AB3" stroke-width="2.8391" stroke-miterlimit="10"/>
<path d="M14.6565 38.6298L6.63193 35.7042C5.04373 35.1191 3.28836 35.8714 2.61964 37.4596C2.1181 38.2954 2.36886 39.4657 3.20475 39.9672C7.635 42.8093 12.2324 45.317 12.2324 45.317" stroke="#3E6AB3" stroke-width="2.8391" stroke-miterlimit="10"/>
<path d="M45.8352 9.12265C45.8352 9.12265 50.9342 8.78826 51.3521 14.8903" stroke="#3E6AB3" stroke-width="2.8391" stroke-miterlimit="10"/>
</svg>
