<?xml version="1.0" encoding="utf-8"?>
<!-- Generator: Adobe Illustrator 26.0.1, SVG Export Plug-In . SVG Version: 6.00 Build 0)  -->
<svg version="1.1" id="Layer_1" xmlns="http://www.w3.org/2000/svg" xmlns:xlink="http://www.w3.org/1999/xlink" x="0px" y="0px"
	 viewBox="0 0 60 61" style="enable-background:new 0 0 60 61;" xml:space="preserve">
<style type="text/css">
	.st0{fill:none;stroke:#FFFFFF;stroke-width:2.8391;stroke-miterlimit:10;}
</style>
<path class="st0" d="M42.6,8.1c0,0,6.9-5.3,13.8-3c0.6,5.3-1.4,10.7-5.3,14.4c-5.1,5-23.3,21.7-23.3,21.7"/>
<path class="st0" d="M40.9,9.1L17.1,36.6c0,0-7.4,10.3-6.4,13.3c2.7,0.8,6.4-0.2,15.1-6.6"/>
<path class="st0" d="M36.1,33.5l14.2,19.7c0,0,3.2,1,4.6-0.8c0,0,0,0,0.1-0.1c1.7-2.2,2.1-5,0.9-7.5l-9.2-21.2"/>
<path class="st0" d="M27.4,24.7L6.8,9.2c0,0,0.8-3.8,2.8-4.6c0.3-0.1,0.4-0.2,0.7-0.3c2-0.7,4.2-0.6,6.2,0.3l21,8.6"/>
<path class="st0" d="M49.4,29.6c0,0,3.8-1.3,4.9,0c1.2,1.3-1.5,4.5-2.8,4.8"/>
<path class="st0" d="M52.7,37.5c0,0,3.8-1.3,4.9,0c1.2,1.3-1.5,4.5-2.8,4.8"/>
<path class="st0" d="M31.6,10.4c0,0,1.3-3.8,0-4.9s-4.5,1.5-4.8,2.8"/>
<path class="st0" d="M23.9,7.1c0,0,1.3-3.8,0-4.9C22.5,1,19.3,3.7,19.1,5"/>
<path class="st0" d="M21,46.5l3.8,7.6c0.8,1.5,0.3,3.3-1.3,4.2c-0.8,0.6-1.9,0.5-2.6-0.3c-3.3-4-6.4-8.3-6.4-8.3"/>
<path class="st0" d="M14.7,38.6l-8-2.9c-1.6-0.6-3.3,0.2-4,1.8c-0.5,0.8-0.3,2,0.6,2.5c4.4,2.8,9,5.3,9,5.3"/>
<path class="st0" d="M45.8,9.1c0,0,5.1-0.3,5.5,5.8"/>
</svg>
