<?xml version="1.0" encoding="utf-8"?>
<!-- Generator: Adobe Illustrator 26.0.1, SVG Export Plug-In . SVG Version: 6.00 Build 0)  -->
<svg version="1.1" id="Layer_1" xmlns="http://www.w3.org/2000/svg" xmlns:xlink="http://www.w3.org/1999/xlink" x="0px" y="0px"
	 viewBox="0 0 61 67" style="enable-background:new 0 0 61 67;" xml:space="preserve">
<style type="text/css">
	.st0{fill:none;stroke:#FFFFFF;stroke-width:2.8391;stroke-miterlimit:10;}
	.st1{fill:none;stroke:#4C6796;stroke-width:2.8391;stroke-miterlimit:10;}
	.st2{fill:#FFF8F8;stroke:#FFFFFF;stroke-width:2.8391;stroke-miterlimit:10;}
</style>
<path class="st0" d="M27,14.5H11.9C8.6,14.5,6,11.9,6,8.6V8.1c0-3.3,2.7-5.9,5.9-5.9H27c3.3,0,5.9,2.7,5.9,5.9v0.5
	C32.9,11.9,30.3,14.5,27,14.5z"/>
<path class="st0" d="M33,9.9c0,0-4.6,6.6-1.3,10.7c1.4,1.8,2.8,3.4,3.7,4.8c1.3,1.8,2.1,4,2.1,6.3v21c0,0,0.6,5.9-4.5,5.9H6
	c-5.1,0-4.5-5.9-4.5-5.9v-21c0-2.3,0.8-4.4,2.1-6.3c1-1.3,2.3-3,3.7-4.8C10.6,16.4,6,9.9,6,9.9"/>
<path class="st0" d="M1.5,31h36"/>
<path class="st0" d="M30.6,18.5h-14"/>
<path class="st0" d="M11.8,18.5h2.7"/>
<path class="st0" d="M19.4,35.5v11.4"/>
<path class="st0" d="M13.2,41.5h12.1"/>
<path class="st0" d="M1.5,51.2h24.8"/>
<path class="st1" d="M25.7,58.6v-8.2"/>
<path class="st2" d="M27.5,60.9L27,60.4c-2.8-3.9-1.8-9.3,2-12l15.5-11c3.9-2.8,9.3-1.8,12,2.1L57,40c2.8,3.9,1.8,9.3-2,12L39.5,63
	C35.6,65.8,30.2,64.9,27.5,60.9z"/>
</svg>
